<?xml version="1.0" encoding="UTF-8"?>
<!DOCTYPE svg  PUBLIC '-//W3C//DTD SVG 1.1//EN'  'http://www.w3.org/Graphics/SVG/1.1/DTD/svg11.dtd'>
<svg clip-rule="evenodd" fill-rule="evenodd" stroke-linejoin="round" stroke-miterlimit="1.4142" version="1.1" viewBox="0 0 22 22" xml:space="preserve" xmlns="http://www.w3.org/2000/svg">
    <g transform="translate(6.5e-5 .001795)">
        <path d="m19.773 6.102c0-0.215-0.093-0.405-0.237-0.541l-2.624-3.076c-0.14-0.161-0.34-0.258-0.555-0.258h-1.23-9.491c-0.215 0-0.415 0.093-0.555 0.258l-2.678 3.144c-0.115 0.136-0.176 0.304-0.176 0.473v12.937c0 0.404 0.326 0.73 0.731 0.73h16.077c0.405 0 0.731-0.326 0.731-0.73 0 0 7e-3 -12.905 7e-3 -12.937zm-1.468 1.324c0 0.656-0.534 1.189-1.189 1.189h-0.183c-0.655 0-1.189-0.533-1.189-1.189v-0.594h2.561v0.594zm-4.021 0c0 0.656-0.534 1.189-1.189 1.189h-0.183c-0.655 0-1.189-0.533-1.189-1.189v-0.594h2.557v0.594h4e-3zm-4.014 0c0 0.656-0.534 1.189-1.189 1.189h-0.183c-0.655 0-1.189-0.533-1.189-1.189v-0.594h2.557v0.594h4e-3zm-4.018 0c0 0.656-0.534 1.189-1.189 1.189h-0.179c-0.655 0-1.189-0.533-1.189-1.189v-0.594h2.557v0.594zm-0.269-3.734h10.044l1.433 1.679h-1.064-11.845l1.432-1.679zm3.971 14.616v-3.785h2.102v3.785h-2.102zm3.563 0v-4.515c0-0.405-0.326-0.73-0.73-0.73h-3.563c-0.405 0-0.731 0.325-0.731 0.73v4.515h-4.798v-8.515c0.358 0.179 0.759 0.283 1.189 0.283h0.183c0.755 0 1.436-0.319 1.919-0.823 0.483 0.508 1.164 0.823 1.919 0.823h0.183c0.755 0 1.436-0.319 1.919-0.823 0.484 0.508 1.164 0.823 1.919 0.823h0.183c0.756 0 1.436-0.319 1.919-0.823 0.484 0.508 1.164 0.823 1.92 0.823h0.182c0.426 0 0.831-0.104 1.189-0.283v8.515h-4.802z" fill="#4f4f4f" fill-rule="nonzero"/>
    </g>
</svg>
