<?xml version="1.0" encoding="UTF-8"?>
<!DOCTYPE svg  PUBLIC '-//W3C//DTD SVG 1.1//EN'  'http://www.w3.org/Graphics/SVG/1.1/DTD/svg11.dtd'>
<svg clip-rule="evenodd" fill-rule="evenodd" stroke-linejoin="round" stroke-miterlimit="1.4142" version="1.1" viewBox="0 0 22 22" xml:space="preserve" xmlns="http://www.w3.org/2000/svg">
    <g transform="translate(1 1)">
        <path d="m10.38 14.001 8.002 2.343v-4.312c0.256-0.213 0.489-0.471 0.697-0.772 0.594-0.862 0.921-1.996 0.921-3.192 0-1.197-0.327-2.331-0.921-3.192-0.208-0.302-0.441-0.56-0.697-0.773v-3.759l-13.725 3.766h-4.657v8.316h4.094c0.063 1.274 0.396 4.714 2.171 6.662l0.518 0.568 2.422-2.934-0.168-0.377c-3e-3 -7e-3 -0.128-0.295-0.268-0.816 0.072-0.033 0.145-0.07 0.219-0.111 0.441-0.244 0.997-0.677 1.392-1.417zm-4.965-8.715 11.632-3.192v12.468l-9.988-2.925v0.891c0 1.909 0.386 3.312 0.607 3.961l-0.886 1.074c-1.344-2.13-1.365-5.585-1.365-5.623v-6.654zm13.25 2.782c0 0.592-0.104 1.155-0.283 1.642v-3.285c0.179 0.488 0.283 1.05 0.283 1.643zm-17.33-2.623h2.745v5.646h-2.745v-5.646zm7.164 8.709c-0.03-0.227-0.055-0.469-0.074-0.726l0.628 0.184c-0.169 0.239-0.364 0.414-0.554 0.542z" fill="#75ca67" fill-rule="nonzero"/>
    </g>
</svg>
