<?xml version="1.0" encoding="UTF-8"?>
<!DOCTYPE svg  PUBLIC '-//W3C//DTD SVG 1.1//EN'  'http://www.w3.org/Graphics/SVG/1.1/DTD/svg11.dtd'>
<svg clip-rule="evenodd" fill-rule="evenodd" stroke-linejoin="round" stroke-miterlimit="1.4142" version="1.1" viewBox="0 0 26 26" xml:space="preserve" xmlns="http://www.w3.org/2000/svg">
    <g transform="translate(-7.5e-5 -.54165)" fill="#fff" fill-rule="nonzero">
        <path d="m13 13c0.598 0 1.083-0.485 1.083-1.083 0-0.599-0.485-1.084-1.083-1.084s-1.083 0.485-1.083 1.084c0 0.598 0.485 1.083 1.083 1.083z"/>
        <path d="m17.333 13c0.599 0 1.084-0.485 1.084-1.083 0-0.599-0.485-1.084-1.084-1.084-0.598 0-1.083 0.485-1.083 1.084 0 0.598 0.485 1.083 1.083 1.083z"/>
        <path d="m8.667 13c0.598 0 1.083-0.485 1.083-1.083 0-0.599-0.485-1.084-1.083-1.084s-1.083 0.485-1.083 1.084c0 0.598 0.485 1.083 1.083 1.083z"/>
        <path d="m20.583 3.25h-15.166c-0.862 0-1.689 0.342-2.298 0.952-0.61 0.609-0.952 1.436-0.952 2.298v16.25c0 0.192 0.051 0.38 0.148 0.546 0.098 0.166 0.237 0.302 0.404 0.397 0.162 0.091 0.345 0.14 0.531 0.14 0.195 0 0.385-0.052 0.553-0.151l4.864-2.947c0.18-0.107 0.386-0.16 0.596-0.152h11.32c0.862 0 1.689-0.342 2.299-0.952 0.609-0.609 0.951-1.436 0.951-2.298v-10.833c0-0.862-0.342-1.689-0.951-2.298-0.61-0.61-1.437-0.952-2.299-0.952zm1.084 14.083c0 0.288-0.114 0.563-0.318 0.766-0.203 0.203-0.478 0.318-0.766 0.318h-11.32c-0.592-1e-3 -1.173 0.16-1.68 0.466l-3.25 1.95v-14.333c0-0.287 0.115-0.563 0.318-0.766s0.478-0.317 0.766-0.317h15.166c0.288 0 0.563 0.114 0.766 0.317 0.204 0.203 0.318 0.479 0.318 0.766v10.833z"/>
    </g>
</svg>
