<?xml version="1.0" encoding="UTF-8"?>
<!DOCTYPE svg  PUBLIC '-//W3C//DTD SVG 1.1//EN'  'http://www.w3.org/Graphics/SVG/1.1/DTD/svg11.dtd'>
<svg clip-rule="evenodd" fill-rule="evenodd" stroke-linejoin="round" stroke-miterlimit="1.4142" version="1.1" viewBox="0 0 27 27" xml:space="preserve" xmlns="http://www.w3.org/2000/svg">
    <g transform="translate(-.74975 -.5)" fill="#4f4f4f" fill-rule="nonzero">
        <path d="m5 2v24h2.456v-0.835c0-0.418 0.34-0.758 0.758-0.758s0.758 0.34 0.758 0.758v0.835h2.508v-0.835c0-0.418 0.34-0.758 0.758-0.758s0.758 0.34 0.758 0.758v0.835h2.507v-0.835c0-0.418 0.341-0.758 0.759-0.758s0.758 0.34 0.758 0.758v0.835h2.507v-0.835c0-0.418 0.34-0.758 0.758-0.758 0.419 0 0.759 0.34 0.759 0.758v0.835h2.456v-24h-2.456v0.835c0 0.418-0.34 0.758-0.758 0.758-0.419 0-0.759-0.34-0.759-0.758v-0.835h-2.507v0.835c0 0.418-0.34 0.758-0.758 0.758s-0.759-0.34-0.759-0.758v-0.835h-2.507v0.835c0 0.418-0.34 0.758-0.758 0.758s-0.758-0.34-0.758-0.758v-0.835h-2.508v0.835c0 0.418-0.34 0.758-0.758 0.758s-0.758-0.34-0.758-0.758v-0.835h-2.456zm3.214 3.262c0.836 0 1.575-0.425 2.012-1.07 0.437 0.645 1.176 1.07 2.012 1.07s1.575-0.425 2.012-1.07c0.437 0.645 1.175 1.07 2.012 1.07 0.836 0 1.575-0.425 2.012-1.07 0.436 0.645 1.175 1.07 2.012 1.07 0.586 0 1.124-0.209 1.544-0.556v18.588c-0.42-0.347-0.958-0.556-1.544-0.556-0.837 0-1.576 0.425-2.012 1.07-0.437-0.645-1.176-1.07-2.012-1.07-0.837 0-1.575 0.425-2.012 1.07-0.437-0.645-1.176-1.07-2.012-1.07s-1.575 0.425-2.012 1.07c-0.437-0.645-1.176-1.07-2.012-1.07-0.586 0-1.125 0.209-1.545 0.556v-18.588c0.42 0.347 0.959 0.556 1.545 0.556z"/>
        <rect x="9.542" y="7.267" width="9.64" height="1.669"/>
        <rect x="9.542" y="10.734" width="9.64" height="1.669"/>
        <rect x="9.542" y="14.2" width="9.64" height="1.669"/>
        <rect x="13.019" y="19.208" width="6.163" height="1.669"/>
    </g>
</svg>
