<?xml version="1.0" encoding="UTF-8"?>
<!DOCTYPE svg  PUBLIC '-//W3C//DTD SVG 1.1//EN'  'http://www.w3.org/Graphics/SVG/1.1/DTD/svg11.dtd'>
<svg clip-rule="evenodd" fill-rule="evenodd" stroke-linejoin="round" stroke-miterlimit="1.4142" version="1.1" viewBox="0 0 28 28" xml:space="preserve" xmlns="http://www.w3.org/2000/svg">
    <g transform="translate(.5 .49998)" fill="#4f4f4f" fill-rule="nonzero">
        <path d="m26.765 9.677c0.207-0.511 0.272-1.107 0.216-1.653-0.067-0.644-0.256-1.271-0.62-1.813l-1.595 0.932 0.225 0.396c0.064 0.174 0.113 0.352 0.146 0.535 0.017 0.186 0.018 0.372 2e-3 0.559-0.032 0.172-0.077 0.34-0.138 0.504-0.075 0.157-0.163 0.306-0.263 0.448-0.072 0.085-0.149 0.166-0.229 0.244-9e-3 -0.017-0.017-0.034-0.026-0.051-0.612-1.193-1.485-2.261-2.594-3.174-2.244-1.849-5.216-2.866-8.369-2.866-0.92 0-1.825 0.087-2.7 0.261-0.648-0.691-1.497-1.206-2.534-1.536-0.881-0.28-1.88-0.422-2.97-0.422-0.969 0-1.664 0.116-1.693 0.121l-1.066 0.182 1.648 5.399c-0.432 0.508-0.807 1.053-1.121 1.627l-3.084 0.868v6.989l3.084 0.869c0.642 1.173 1.548 2.228 2.654 3.093l-0.498 3.77h6.782l0.871-1.245c0.209 9e-3 0.418 0.014 0.627 0.014 0.894 0 1.781-0.083 2.646-0.246l0.97 1.477h6.801l-0.715-5.402c0.656-0.766 1.177-1.602 1.551-2.491 0.45-1.068 0.678-2.19 0.678-3.333 0-0.716-0.089-1.42-0.264-2.107 0.224-0.141 0.434-0.304 0.632-0.492 0.432-0.41 0.726-0.912 0.946-1.457zm-5.238 8.921-0.308 0.329 0.546 4.129h-3.601l-1.132-1.723-0.651 0.156c-0.925 0.223-1.887 0.336-2.861 0.336-0.342 0-0.686-0.015-1.022-0.043l-0.546-0.045-0.921 1.319h-3.619l0.362-2.748-0.474-0.331c-1.183-0.826-2.118-1.898-2.705-3.102l-0.187-0.384-2.504-0.705v-4.106l2.504-0.706 0.187-0.383c0.344-0.706 0.804-1.364 1.367-1.957l0.383-0.402-1.308-4.284c0.089-2e-3 0.183-4e-3 0.279-4e-3 0.882 0 1.709 0.115 2.393 0.333 0.875 0.279 1.54 0.727 1.977 1.333l0.375 0.521 0.624-0.153c0.907-0.224 1.861-0.337 2.835-0.337 5.529 0 10.028 3.63 10.028 8.092 0 1.769-0.699 3.452-2.021 4.865z"/>
        <path d="m7.92 11.676c0.534 0 0.967-0.434 0.967-0.968s-0.433-0.967-0.967-0.967-0.967 0.433-0.967 0.967 0.433 0.968 0.967 0.968z"/>
        <path d="m12.187 6.847 0.419 1.857c7e-3 -1e-3 0.693-0.149 1.638-0.109 0.872 0.037 2.138 0.246 3.224 1.034l1.118-1.54c-2.79-2.026-6.253-1.275-6.399-1.242z"/>
    </g>
</svg>
