<?xml version="1.0" encoding="UTF-8"?>
<!DOCTYPE svg  PUBLIC '-//W3C//DTD SVG 1.1//EN'  'http://www.w3.org/Graphics/SVG/1.1/DTD/svg11.dtd'>
<svg clip-rule="evenodd" fill-rule="evenodd" stroke-linejoin="round" stroke-miterlimit="1.4142" version="1.1" viewBox="0 0 26 26" xml:space="preserve" xmlns="http://www.w3.org/2000/svg">
    <g transform="translate(-.00088974 .0009125)">
        <g transform="translate(-2 -2)">
            <path d="m15 11.25c-0.995 0-1.948 0.395-2.652 1.098-0.703 0.704-1.098 1.657-1.098 2.652s0.395 1.948 1.098 2.652c0.704 0.703 1.657 1.098 2.652 1.098s1.948-0.395 2.652-1.098c0.703-0.704 1.098-1.657 1.098-2.652s-0.395-1.948-1.098-2.652c-0.704-0.703-1.657-1.098-2.652-1.098zm-1.875 3.75c0-0.497 0.198-0.974 0.549-1.326 0.352-0.351 0.829-0.549 1.326-0.549s0.974 0.198 1.326 0.549c0.351 0.352 0.549 0.829 0.549 1.326s-0.198 0.974-0.549 1.326c-0.352 0.351-0.829 0.549-1.326 0.549s-0.974-0.198-1.326-0.549c-0.351-0.352-0.549-0.829-0.549-1.326z" fill="#fff" fill-rule="nonzero"/>
        </g>
        <g transform="translate(-2 -2)">
            <path d="m19.909 8.246c-0.346 0.064-0.703-0.012-0.993-0.212-0.289-0.199-0.488-0.505-0.552-0.851l-0.488-2.655c-0.024-0.129-0.085-0.248-0.177-0.343-0.092-0.094-0.21-0.158-0.338-0.186-1.557-0.33-3.166-0.33-4.724 0-0.128 0.028-0.246 0.092-0.338 0.186-0.091 0.095-0.153 0.214-0.177 0.343l-0.486 2.655c-0.035 0.189-0.111 0.368-0.223 0.525-0.111 0.157-0.255 0.288-0.422 0.384s-0.352 0.154-0.544 0.172c-0.191 0.017-0.385-8e-3 -0.566-0.072l-2.548-0.908c-0.124-0.044-0.258-0.051-0.385-0.019s-0.243 0.1-0.331 0.198c-1.067 1.175-1.875 2.563-2.366 4.074-0.041 0.125-0.043 0.259-7e-3 0.385s0.109 0.239 0.209 0.324l2.066 1.745c0.147 0.124 0.265 0.279 0.346 0.453s0.123 0.364 0.123 0.556-0.042 0.382-0.123 0.556-0.199 0.329-0.346 0.453l-2.066 1.745c-0.1 0.085-0.173 0.198-0.209 0.324s-0.034 0.26 7e-3 0.385c0.492 1.511 1.299 2.899 2.368 4.075 0.088 0.097 0.203 0.165 0.331 0.197 0.127 0.032 0.261 0.025 0.385-0.019l2.55-0.908c0.181-0.065 0.374-0.09 0.566-0.073s0.378 0.075 0.545 0.171 0.311 0.227 0.422 0.385c0.111 0.157 0.187 0.337 0.222 0.526l0.484 2.655c0.048 0.262 0.253 0.472 0.515 0.527 1.558 0.33 3.168 0.33 4.725 0 0.129-0.027 0.246-0.092 0.337-0.186 0.092-0.093 0.153-0.212 0.177-0.341l0.488-2.655c0.035-0.189 0.111-0.368 0.222-0.525 0.112-0.157 0.256-0.288 0.423-0.384 0.166-0.096 0.352-0.154 0.544-0.172 0.191-0.017 0.384 8e-3 0.566 0.072l2.548 0.908c0.253 0.09 0.536 0.018 0.716-0.178 1.067-1.176 1.875-2.564 2.366-4.075 0.041-0.125 0.043-0.259 7e-3 -0.385s-0.109-0.239-0.209-0.324l-2.067-1.745c-0.147-0.124-0.265-0.278-0.346-0.453-0.081-0.174-0.123-0.364-0.123-0.556s0.042-0.382 0.123-0.556c0.081-0.175 0.199-0.329 0.346-0.453l2.067-1.745c0.1-0.085 0.173-0.198 0.209-0.324s0.034-0.26-7e-3 -0.385c-0.492-1.511-1.3-2.899-2.37-4.074-0.088-0.098-0.204-0.166-0.331-0.198s-0.261-0.025-0.385 0.019l-2.55 0.908c-0.068 0.024-0.137 0.043-0.208 0.056l2e-3 -2e-3zm-12.413 1.088 1.757 0.624c0.437 0.156 0.903 0.215 1.365 0.173s0.91-0.184 1.312-0.416c0.402-0.231 0.749-0.548 1.017-0.927 0.267-0.379 0.45-0.811 0.534-1.267l0.332-1.819c0.788-0.098 1.584-0.098 2.372 0l0.334 1.819c0.084 0.456 0.266 0.889 0.533 1.268 0.268 0.38 0.615 0.696 1.017 0.928s0.85 0.374 1.312 0.415c0.463 0.042 0.929-0.018 1.366-0.174l1.753-0.626c0.478 0.626 0.876 1.309 1.181 2.032l-1.414 1.195c-0.355 0.3-0.64 0.674-0.836 1.095-0.196 0.422-0.297 0.881-0.297 1.346s0.101 0.924 0.297 1.346c0.196 0.421 0.481 0.795 0.836 1.095l1.416 1.195c-0.307 0.724-0.703 1.407-1.181 2.032l-1.757-0.626c-0.437-0.156-0.903-0.215-1.365-0.173s-0.91 0.184-1.312 0.416-0.749 0.548-1.016 0.927c-0.268 0.379-0.451 0.811-0.535 1.267l-0.334 1.819c-0.787 0.099-1.584 0.099-2.372 0l-0.332-1.819c-0.083-0.456-0.265-0.889-0.533-1.268-0.268-0.38-0.615-0.696-1.017-0.928s-0.85-0.374-1.312-0.415c-0.463-0.042-0.929 0.018-1.366 0.174l-1.751 0.626c-0.478-0.625-0.875-1.308-1.181-2.032l1.413-1.197c0.355-0.299 0.641-0.673 0.836-1.095 0.196-0.421 0.297-0.88 0.297-1.345s-0.101-0.924-0.297-1.345c-0.195-0.422-0.481-0.795-0.836-1.095l-1.415-1.195c0.307-0.723 0.705-1.406 1.181-2.032l-2e-3 2e-3z" fill="#fff" fill-rule="nonzero"/>
        </g>
    </g>
</svg>
