<?xml version="1.0" encoding="UTF-8"?>
<!DOCTYPE svg  PUBLIC '-//W3C//DTD SVG 1.1//EN'  'http://www.w3.org/Graphics/SVG/1.1/DTD/svg11.dtd'>
<svg clip-rule="evenodd" fill-rule="evenodd" stroke-linejoin="round" stroke-miterlimit="1.4142" version="1.1" viewBox="0 0 20 20" xml:space="preserve" xmlns="http://www.w3.org/2000/svg">
    <g transform="translate(-5e-6 .00067)">
        <path d="m7.813 6.205h1.443v6.608c0 0.086 0.07 0.156 0.156 0.156h1.172c0.086 0 0.156-0.07 0.156-0.156v-6.608h1.448c0.13 0 0.203-0.15 0.122-0.252l-2.187-2.769c-0.015-0.019-0.033-0.034-0.055-0.045-0.021-0.01-0.044-0.015-0.068-0.015s-0.047 5e-3 -0.068 0.015c-0.022 0.011-0.04 0.026-0.055 0.045l-2.188 2.767c-0.08 0.104-7e-3 0.254 0.124 0.254zm9.335 6.022h-1.171c-0.086 0-0.157 0.07-0.157 0.156v3.008h-11.64v-3.008c0-0.086-0.071-0.156-0.157-0.156h-1.171c-0.086 0-0.157 0.07-0.157 0.156v3.867c0 0.346 0.28 0.625 0.625 0.625h13.36c0.345 0 0.625-0.279 0.625-0.625v-3.867c0-0.086-0.071-0.156-0.157-0.156z" fill="#fff" fill-rule="nonzero"/>
    </g>
</svg>
