<?xml version="1.0" encoding="UTF-8"?>
<!DOCTYPE svg  PUBLIC '-//W3C//DTD SVG 1.1//EN'  'http://www.w3.org/Graphics/SVG/1.1/DTD/svg11.dtd'>
<svg clip-rule="evenodd" fill-rule="evenodd" stroke-linejoin="round" stroke-miterlimit="1.4142" version="1.1" viewBox="0 0 28 28" xml:space="preserve" xmlns="http://www.w3.org/2000/svg">
    <g transform="translate(5 5)">
        <path d="m2.063 0v18h1.842v-0.626c0-0.313 0.255-0.569 0.568-0.569 0.314 0 0.569 0.256 0.569 0.569v0.626h1.88v-0.626c0-0.313 0.256-0.569 0.569-0.569 0.314 0 0.569 0.256 0.569 0.569v0.626h1.88v-0.626c0-0.313 0.255-0.569 0.569-0.569s0.569 0.256 0.569 0.569v0.626h1.88v-0.626c0-0.313 0.255-0.569 0.569-0.569 0.313 0 0.569 0.256 0.569 0.569v0.626h1.841v-18h-1.841v0.626c0 0.314-0.255 0.569-0.569 0.569s-0.569-0.255-0.569-0.569v-0.626h-1.88v0.626c0 0.314-0.255 0.569-0.569 0.569s-0.569-0.255-0.569-0.569v-0.626h-1.88v0.626c0 0.314-0.255 0.569-0.569 0.569-0.313 0-0.569-0.255-0.569-0.569v-0.626h-1.88v0.626c0 0.314-0.255 0.569-0.569 0.569-0.313 0-0.568-0.255-0.568-0.569v-0.626h-1.842zm2.41 2.447c0.627 0 1.182-0.319 1.509-0.803 0.328 0.484 0.882 0.803 1.509 0.803s1.182-0.319 1.509-0.803c0.328 0.484 0.882 0.803 1.509 0.803s1.182-0.319 1.509-0.803c0.328 0.484 0.882 0.803 1.509 0.803 0.44 0 0.844-0.157 1.159-0.418v13.942c-0.315-0.261-0.719-0.418-1.159-0.418-0.627 0-1.181 0.319-1.509 0.803-0.327-0.484-0.882-0.803-1.509-0.803s-1.181 0.319-1.509 0.803c-0.327-0.484-0.882-0.803-1.509-0.803s-1.181 0.319-1.509 0.803c-0.327-0.484-0.882-0.803-1.509-0.803-0.44 0-0.843 0.157-1.158 0.418v-13.942c0.315 0.261 0.719 0.418 1.158 0.418z" fill="#75ca67" fill-rule="nonzero"/>
    </g>
    <g transform="translate(5 5)">
        <rect x="5.469" y="3.95" width="7.23" height="1.252" fill="#75ca67" fill-rule="nonzero"/>
    </g>
    <g transform="translate(5 5)">
        <rect x="5.469" y="6.55" width="7.23" height="1.252" fill="#75ca67" fill-rule="nonzero"/>
    </g>
    <g transform="translate(5 5)">
        <rect x="5.469" y="9.15" width="7.23" height="1.252" fill="#75ca67" fill-rule="nonzero"/>
    </g>
    <g transform="translate(5 5)">
        <path d="m12.699 12.906c-1.553 0.137-3.089 0.081-4.622 0v1.252h4.622v-1.252z" fill="#75ca67" fill-rule="nonzero"/>
    </g>
</svg>
