<?xml version="1.0" encoding="UTF-8"?>
<!DOCTYPE svg  PUBLIC '-//W3C//DTD SVG 1.1//EN'  'http://www.w3.org/Graphics/SVG/1.1/DTD/svg11.dtd'>
<svg clip-rule="evenodd" fill-rule="evenodd" stroke-linejoin="round" stroke-miterlimit="1.4142" version="1.1" viewBox="0 0 22 22" xml:space="preserve" xmlns="http://www.w3.org/2000/svg">
    <g transform="translate(.99875 .99999)">
        <path d="m19.633 7.12c-0.228-0.257-0.541-0.424-0.881-0.471v-1e-3l-5.315-0.734-2.104-5.026c-0.307-0.736-1.152-1.083-1.888-0.776-0.35 0.146-0.629 0.425-0.776 0.776l-2.103 5.026-5.315 0.734c-0.792 0.11-1.345 0.842-1.235 1.634 0.048 0.34 0.214 0.652 0.471 0.881l4.005 3.571-0.823 5.604c-0.089 0.569 0.172 1.136 0.663 1.438 0.483 0.309 1.106 0.298 1.577-0.03l4.092-2.782 4.092 2.785c0.66 0.448 1.559 0.277 2.007-0.384 0.204-0.3 0.287-0.665 0.234-1.024l-0.823-5.606 4.005-3.571c0.597-0.532 0.649-1.447 0.117-2.044zm-5.361 4.808c-0.179 0.16-0.265 0.399-0.23 0.637l0.857 5.999-4.494-3.055c-0.242-0.165-0.561-0.165-0.803 0l-4.52 3.037 0.879-5.984c0.034-0.237-0.053-0.475-0.231-0.634l-4.285-3.863 5.719-0.789c0.251-0.035 0.464-0.199 0.562-0.432l2.284-5.416c2e-3 4e-3 4e-3 7e-3 6e-3 0.011l2.26 5.402c0.098 0.233 0.311 0.398 0.562 0.432l5.726 0.824-4.292 3.831z" fill="#4f4f4f" fill-rule="nonzero"/>
    </g>
</svg>
