<svg width="24" height="24" viewBox="0 0 24 24" fill="none" xmlns="http://www.w3.org/2000/svg">
<path d="M10.4999 17C10.3683 17.0008 10.2379 16.9755 10.116 16.9258C9.9942 16.876 9.88338 16.8027 9.78994 16.71C9.69621 16.617 9.62182 16.5064 9.57105 16.3846C9.52028 16.2627 9.49414 16.132 9.49414 16C9.49414 15.868 9.52028 15.7373 9.57105 15.6154C9.62182 15.4936 9.69621 15.383 9.78994 15.29L13.0999 12L9.91994 8.69C9.73369 8.50263 9.62915 8.24918 9.62915 7.985C9.62915 7.72081 9.73369 7.46736 9.91994 7.28C10.0129 7.18627 10.1235 7.11187 10.2454 7.06111C10.3672 7.01034 10.4979 6.9842 10.6299 6.9842C10.762 6.9842 10.8927 7.01034 11.0145 7.06111C11.1364 7.11187 11.247 7.18627 11.3399 7.28L15.1999 11.28C15.3832 11.4669 15.4858 11.7182 15.4858 11.98C15.4858 12.2417 15.3832 12.4931 15.1999 12.68L11.1999 16.68C11.1102 16.7769 11.0021 16.8551 10.882 16.91C10.7618 16.965 10.632 16.9955 10.4999 17Z" fill="#75CA67"/>
</svg>
