<?xml version="1.0" encoding="UTF-8"?>
<!DOCTYPE svg  PUBLIC '-//W3C//DTD SVG 1.1//EN'  'http://www.w3.org/Graphics/SVG/1.1/DTD/svg11.dtd'>
<svg clip-rule="evenodd" fill-rule="evenodd" stroke-linejoin="round" stroke-miterlimit="1.4142" version="1.1" viewBox="0 0 22 22" xml:space="preserve" xmlns="http://www.w3.org/2000/svg">
    <g transform="translate(-.88866 -7.96e-7)">
        <path d="m19.419 11.523v-0.523-0.529l1.315-1.155c0.242-0.215 0.401-0.508 0.449-0.829 0.047-0.321-0.02-0.648-0.189-0.924l-1.616-2.75c-0.121-0.209-0.293-0.383-0.501-0.503-0.208-0.121-0.444-0.185-0.684-0.185-0.149-1e-3 -0.297 0.022-0.439 0.069l-1.664 0.564c-0.287-0.192-0.587-0.364-0.897-0.516l-0.349-1.733c-0.063-0.316-0.234-0.6-0.485-0.803-0.25-0.202-0.564-0.31-0.885-0.303h-3.205c-0.322-7e-3 -0.635 0.101-0.885 0.303-0.251 0.203-0.422 0.487-0.485 0.803l-0.349 1.733c-0.313 0.152-0.615 0.324-0.904 0.516l-1.63-0.592c-0.143-0.037-0.291-0.051-0.439-0.041-0.24 0-0.476 0.064-0.684 0.185-0.208 0.12-0.38 0.294-0.5 0.503l-1.617 2.75c-0.159 0.275-0.219 0.598-0.168 0.913 0.052 0.315 0.21 0.602 0.449 0.812l1.295 1.189v1.052l-1.295 1.155c-0.246 0.212-0.409 0.504-0.46 0.825s0.012 0.65 0.179 0.929l1.617 2.75c0.12 0.208 0.292 0.382 0.5 0.502 0.208 0.121 0.444 0.185 0.684 0.185 0.149 1e-3 0.297-0.022 0.439-0.069l1.664-0.563c0.287 0.191 0.587 0.363 0.897 0.515l0.349 1.733c0.063 0.316 0.235 0.601 0.485 0.803s0.564 0.31 0.885 0.304h3.233c0.321 6e-3 0.635-0.102 0.885-0.304s0.422-0.487 0.485-0.803l0.349-1.733c0.312-0.151 0.614-0.324 0.904-0.515l1.657 0.563c0.142 0.047 0.29 0.07 0.439 0.069 0.24 0 0.476-0.064 0.684-0.185 0.208-0.12 0.38-0.294 0.5-0.502l1.562-2.75c0.16-0.276 0.219-0.599 0.168-0.914s-0.21-0.602-0.449-0.812l-1.294-1.189zm-1.226 4.977-2.349-0.797c-0.55 0.467-1.179 0.833-1.856 1.079l-0.487 2.468h-3.232l-0.486-2.441c-0.673-0.253-1.298-0.618-1.85-1.079l-2.356 0.77-1.616-2.75 1.863-1.65c-0.127-0.712-0.127-1.44 0-2.152l-1.863-1.698 1.616-2.75 2.35 0.798c0.549-0.468 1.178-0.834 1.856-1.08l0.486-2.468h3.232l0.487 2.441c0.672 0.253 1.297 0.618 1.849 1.079l2.356-0.77 1.616 2.75-1.863 1.65c0.127 0.712 0.127 1.44 0 2.152l1.863 1.698-1.616 2.75z" fill="#75ca67" fill-rule="nonzero"/>
    </g>
    <g transform="translate(-.88519 -.00010496)">
        <path d="m11.885 15.125c-0.813 0-1.607-0.242-2.283-0.695s-1.202-1.098-1.513-1.851c-0.311-0.754-0.393-1.584-0.234-2.384 0.158-0.8 0.55-1.535 1.124-2.112 0.575-0.577 1.307-0.97 2.104-1.129 0.798-0.159 1.624-0.077 2.375 0.235s1.392 0.841 1.844 1.519c0.451 0.679 0.692 1.476 0.692 2.292 6e-3 0.543-0.097 1.082-0.301 1.585-0.205 0.503-0.507 0.96-0.89 1.344s-0.838 0.688-1.339 0.893c-0.501 0.206-1.038 0.309-1.579 0.303zm0-6.875c-0.362-8e-3 -0.722 0.057-1.058 0.192s-0.642 0.338-0.898 0.595-0.457 0.563-0.592 0.901c-0.135 0.337-0.2 0.699-0.191 1.062-9e-3 0.364 0.056 0.725 0.191 1.062 0.135 0.338 0.336 0.644 0.592 0.901 0.256 0.258 0.562 0.46 0.898 0.595s0.696 0.201 1.058 0.192c0.362 9e-3 0.722-0.057 1.058-0.192 0.337-0.135 0.642-0.337 0.898-0.595 0.256-0.257 0.458-0.563 0.592-0.901 0.135-0.337 0.2-0.698 0.191-1.062 9e-3 -0.363-0.056-0.725-0.191-1.062-0.134-0.338-0.336-0.644-0.592-0.901s-0.561-0.46-0.898-0.595c-0.336-0.135-0.696-0.2-1.058-0.192z" fill="#75ca67" fill-rule="nonzero"/>
    </g>
</svg>
